<svg xmlns="http://www.w3.org/2000/svg" viewBox="0 0 512 512">
  <defs>
    <linearGradient id="grad1" x1="0%" y1="0%" x2="100%" y2="100%">
      <stop offset="0%" style="stop-color:#10b981;stop-opacity:1" />
      <stop offset="100%" style="stop-color:#059669;stop-opacity:1" />
    </linearGradient>
  </defs>
  <circle cx="256" cy="256" r="240" fill="url(#grad1)" />
  <path d="M368 256c0 61.9-50.1 112-112 112s-112-50.1-112-112 50.1-112 112-112c8.8 0 17.4 1 25.7 2.9C259.6 106.1 212.1 80 160 80c-97.2 0-176 78.8-176 176s78.8 176 176 176c86.4 0 158.3-62.6 173.3-144.6-10.3 2.2-21 3.4-32 3.4z" fill="#ffffff"/>
  <path d="M416 128l22.6 45.8 50.5 7.3-36.5 35.6 8.6 50.3-45.2-23.8-45.2 23.8 8.6-50.3-36.5-35.6 50.5-7.3L416 128z" fill="#fbbf24"/>
</svg>
